# AST/ASF file generated using VICON BodyLanguage
# -----------------------------------------------
:version 1.10
:name VICON
:units
  mass 1.0
  length 0.45
  angle deg
:documentation
   .ast/.asf automatically generated from VICON data using
   VICON BodyBuilder and BodyLanguage model FoxedUp or BRILLIANT.MOD
:root
   order TX TY TZ RX RY RZ
   axis XYZ
   position 0 0 0  
   orientation 0 0 0 
:bonedata
  begin
     id 1 
     name lhipjoint
     direction 0.627457 -0.725269 0.283342 
     length 2.53237 
     axis 0 0 0  XYZ
  end
  begin
     id 2 
     name lfemur
     direction 0.34202 -0.939693 0  
     length 7.32496  
     axis 0 0 20  XYZ
    dof rx ry rz
    limits (-160.0 20.0)
           (-70.0 70.0)
           (-60.0 70.0)
  end
  begin
     id 3 
     name ltibia
     direction 0.34202 -0.939693 0   
     length 7.69674   
     axis 0 0 20   XYZ
    dof rx
    limits (-10.0 170.0)
  end
  begin
     id 4 
     name lfoot
     direction 0.127289 -0.349722 0.928166   
     length 1.8612   
     axis -90 7.62852e-016 20   XYZ
    dof rx rz
    limits (-45.0 90.0)
           (-70.0 20.0)
  end
  begin
     id 5 
     name ltoes
     direction 1.53561e-011 -4.21864e-011 1   
     length 0.925608   
     axis -90 7.62852e-016 20   XYZ
    dof rx
    limits (-90.0 20.0)
  end
  begin
     id 6 
     name rhipjoint
     direction -0.609094 -0.738725 0.288599   
     length 2.48624  
     axis 0 0 0  XYZ 
  end
  begin
     id 7 
     name rfemur
     direction -0.34202 -0.939693 0   
     length 7.44259   
     axis 0 0 -20   XYZ
    dof rx ry rz
    limits (-160.0 20.0)
           (-70.0 70.0)
           (-70.0 60.0)
  end
  begin
     id 8 
     name rtibia
     direction -0.34202 -0.939693 0   
     length 7.7781   
     axis 0 0 -20   XYZ
    dof rx
    limits (-10.0 170.0)
 end
 begin
     id 9 
     name rfoot
     direction -0.107015 -0.294021 0.949789   
     length 2.14741  
     axis -90 -7.62852e-016 -20   XYZ
    dof rx rz
    limits (-45.0 90.0)
           (-20.0 70.0)
  end
  begin
     id 10 
     name rtoes
     direction -1.53497e-011 -4.21924e-011 1   
     length 1.0706   
     axis -90 -7.62852e-016 -20   XYZ
    dof rx
    limits (-90.0 20.0)
  end
  begin
     id 11 
     name lowerback
     direction -0.0142066 0.998112 -0.0597545   
     length 1.86627   
     axis 0 0 0   XYZ
    dof rx ry rz
    limits (-20.0 45.0)
           (-30.0 30.0)
           (-30.0 30.0)
  end
  begin
     id 12 
     name upperback
     direction 0.00547294 0.999744 0.0219437   
     length 1.86272   
     axis 0 0 0   XYZ
    dof rx ry rz
    limits (-20.0 45.0)
           (-30.0 30.0)
           (-30.0 30.0)
  end
  begin
     id 13 
     name thorax
     direction 0.0116162 0.998704 0.0495538   
     length 1.8703   
     axis 0 0 0   XYZ
    dof rx ry rz
    limits (-20.0 45.0)
           (-30.0 30.0)
           (-30.0 30.0)
  end
  begin
     id 14 
     name lowerneck
     direction -0.0106574 0.998739 0.0490586   
     length 1.8074   
     axis 0 0 0   XYZ
    dof rx ry rz
    limits (-20.0 45.0)
           (-30.0 30.0)
           (-30.0 30.0)
  end
  begin
     id 15 
     name upperneck
     direction 0.030527 0.976587 -0.212944   
     length 1.80681   
     axis 0 0 0   XYZ
    dof rx ry rz
    limits (-20.0 45.0)
           (-30.0 30.0)
           (-30.0 30.0)
  end
  begin
     id 16
     name head
     direction 0.00869225 0.997035 -0.0764531  
     length 1.8313  
     axis 0 0 0   XYZ
    dof rx ry rz
    limits (-20.0 45.0)
           (-30.0 30.0)
           (-30.0 30.0)
  end
  begin
     id 17 
     name lclavicle
     direction 0.915958 0.399447 0.0382386  
     length 3.78965  
     axis 0 0 0   XYZ
    dof ry rz
    limits (-20.0 10.0)
           (0.0 20.0)
  end
  begin
     id 18 
     name lhumerus
     direction 1 -4.48967e-011 3.19303e-027   
     length 4.78095   
     axis -180 -30 -90   XYZ
    dof rx ry rz
    limits (-60.0 90.0)
           (-90.0 90.0)
           (-90.0 90.0)
  end
  begin
     id 19
     name lradius
     direction 1 -4.48967e-011 -3.77974e-027   
     length 3.58615   
     axis -180 -30 -90   XYZ
    dof rx
    limits (-10.0 170.0)
  end
  begin
     id 20
     name lwrist
     direction 1 -4.48927e-011 1.2807e-027   
     length 1.79307   
     axis 1.91374e-015 90 90   XYZ
    dof ry
    limits (-180.0 0.0)
 end
  begin
     id 21 
     name lhand
     direction 1 -4.49036e-011 2.5614e-027   
     length 0.659812   
     axis -1.63439e-015 90 90   XYZ
    dof rx rz
    limits (-90.0 90.0)
           (-45.0 45.0)
  end
  begin
     id 22 
     name lfingers
     direction 1 -4.49052e-011 5.1228e-027   
     length 0.531957   
     axis -3.26879e-015 90 90   XYZ
    dof rx
    limits (0.0 90.0)
  end
  begin
     id 23
     name lthumb
     direction 0.707107 -6.35012e-011 0.707107   
     length 0.763787   
     axis -90 45 2.85299e-015   XYZ
    dof rx rz
    limits (-45.0 45.0)
           (-45.0 45.0)
  end
  begin
     id 24 
     name rclavicle
     direction -0.895351 0.435135 0.0948887   
     length 3.70497  
     axis 0 0 0   XYZ 
    dof ry rz
    limits (-10.0 20.0)
           (-20.0 0.0)
  end
  begin
     id 25 
     name rhumerus
     direction -1 -4.48971e-011 2.38946e-027  
     length 4.48913   
     axis -180 30 90   XYZ
    dof rx ry rz
    limits (-90.0 60.0)
           (-90.0 90.0)
           (-90.0 90.0)
  end
  begin
     id 26 
     name rradius
     direction -1 -4.4895e-011 4.38668e-027   
     length 3.7051   
     axis -180 30 90   XYZ
    dof rx
    limits (-10.0 170.0)
  end
  begin
     id 27 
     name rwrist
     direction -1 -4.49007e-011 1.2807e-027   
     length 1.85255   
     axis 1.91374e-015 -90 -90   XYZ
    dof ry
    limits (-180.0 0.0)
  end
  begin
     id 28
     name rhand
     direction -1 -4.48851e-011 2.5614e-027   
     length 0.449136   
     axis -1.63439e-015 -90 -90   XYZ
    dof rx rz
    limits (-90.0 90.0)
           (-45.0 45.0)
  end
  begin
     id 29
     name rfingers
     direction -1 -4.49128e-011 5.1228e-027   
     length 0.362105   
     axis -3.26879e-015 -90 -90   XYZ
    dof rx
    limits (0.0 90.0)
  end
  begin
     id 30
     name rthumb
     direction -0.707107 -6.34851e-011 0.707107   
     length 0.519912   
     axis -90 -45 -2.85299e-015   XYZ
    dof rx rz
    limits (-45.0 45.0)
           (-45.0 45.0)
  end
:hierarchy
  begin
    root lhipjoint rhipjoint lowerback
    lhipjoint lfemur
    lfemur ltibia
    ltibia lfoot
    lfoot ltoes
    rhipjoint rfemur
    rfemur rtibia
    rtibia rfoot
    rfoot rtoes
    lowerback upperback
    upperback thorax
    thorax lowerneck lclavicle rclavicle
    lowerneck upperneck
    upperneck head
    lclavicle lhumerus
    lhumerus lradius
    lradius lwrist
    lwrist lhand lthumb
    lhand lfingers
    rclavicle rhumerus
    rhumerus rradius
    rradius rwrist
    rwrist rhand rthumb
    rhand rfingers
  end

#!OML:ASF I:\Actors\actors\Patient Classification 2\Patient 1\Session 1\actor1.ASF
:FULLY-SPECIFIED
:DEGREES
40
root -0.783715 18.5217 6.16935 -5.27582 -1.17738 -3.3714
lowerback 6.13825 0.79587 2.43249
upperback 0.188792 1.24446 0.390885
thorax -3.20417 0.585176 -1.0713
lowerneck -9.99775 -1.48483 0.799021
upperneck 21.546 -2.46362 1.0919
head 8.33554 -0.993361 -0.017751
rclavicle 1.26974e-014 9.93923e-016
rhumerus -51.7101 -11.3558 -82.127
rradius 42.5382
rwrist 9.87891
rhand -8.33276 -32.9898
rfingers 7.12502
rthumb 17.5886 -62.2142
lclavicle 1.26974e-014 9.93923e-016
lhumerus -42.3688 8.38191 85.5328
lradius 37.1792
lwrist -9.44013
lhand -4.24703 -26.0407
lfingers 7.12502
lthumb 21.5167 2.78415
rfemur 16.081 0.302519 18.1322
rtibia 9.54166e-015
rfoot -17.7728 -9.6471
rtoes -7.00421
lfemur 0.927914 -5.58322 -11.7406
ltibia 25.2959
lfoot -22.7953 10.1417
ltoes -58.0305
41
root -0.782565 18.5218 6.16812 -5.26678 -1.185 -3.36333
lowerback 6.11801 0.788777 2.42571
upperback 0.202543 1.23319 0.376438
thorax -3.17883 0.580005 -1.08091
lowerneck -10.0367 -1.48137 0.840316
upperneck 21.5715 -2.46351 1.07215
head 8.35055 -0.991498 -0.0317257
rclavicle 1.84994e-014 4.57205e-015
rhumerus -51.7062 -11.3402 -82.1858
rradius 42.563
rwrist 9.8045
rhand -8.39794 -33.2221
rfingers 7.12502
rthumb 17.5259 -62.4521
lclavicle 1.84994e-014 4.57205e-015
lhumerus -42.3512 8.42399 85.4742
lradius 37.1686
lwrist -9.50475
lhand -4.23031 -26.1076
lfingers 7.12502
lthumb 21.5328 2.7154
rfemur 16.0614 0.311319 18.1221
rtibia -4.77083e-015
rfoot -17.7926 -9.64121
rtoes -7.06973
lfemur 0.921671 -5.61872 -11.7636
ltibia 25.2886
lfoot -22.7974 10.2111
ltoes -58.0597
42
root -0.781897 18.5228 6.16629 -5.25633 -1.20224 -3.37715
lowerback 6.12736 0.789071 2.44064
upperback 0.204643 1.23478 0.373738
thorax -3.18147 0.580534 -1.09235
lowerneck -10.0811 -1.47777 0.825496
upperneck 21.5975 -2.46669 1.11578
head 8.36834 -0.989307 -0.0155139
rclavicle 2.31833e-014 4.77083e-015
rhumerus -51.7348 -11.3493 -82.1992
rradius 42.5799
rwrist 9.7744
rhand -8.51304 -33.2191
rfingers 7.12502
rthumb 17.4151 -62.459
lclavicle 2.31833e-014 4.77083e-015
lhumerus -42.3473 8.46937 85.4275
lradius 37.1507
lwrist -9.61692
lhand -4.25043 -26.1697
lfingers 7.12502
lthumb 21.5135 2.65555
rfemur 16.0422 0.32669 18.1388
rtibia 1.74931e-014
rfoot -17.7371 -9.68835
rtoes -7.40335
lfemur 0.907972 -5.62518 -11.7527
ltibia 25.2903
lfoot -22.7804 10.255
ltoes -58.1133
43
root -0.781175 18.5235 6.16436 -5.24225 -1.22285 -3.41999
lowerback 6.14121 0.789244 2.49335
upperback 0.202143 1.23949 0.383265
thorax -3.19078 0.582012 -1.11276
lowerneck -10.0898 -1.4839 0.829054
upperneck 21.5991 -2.47856 1.12657
head 8.37064 -0.99351 -0.0137996
rclavicle 1.66358e-014 -7.95139e-016
rhumerus -51.7683 -11.3596 -82.1829
rradius 42.5681
rwrist 9.76654
rhand -8.63373 -32.9759
rfingers 7.12502
rthumb 17.299 -62.226
lclavicle 1.66358e-014 -7.95139e-016
lhumerus -42.3439 8.51138 85.4089
lradius 37.1293
lwrist -9.67346
lhand -4.32159 -26.2197
lfingers 7.12502
lthumb 21.4451 2.61335
rfemur 16.0227 0.342544 18.185
rtibia 2.54444e-014
rfoot -17.7028 -9.6732
rtoes -7.40219
lfemur 0.885376 -5.60444 -11.6994
ltibia 25.2967
lfoot -22.7714 10.2091
ltoes -58.0657
44
root -0.780258 18.5238 6.16284 -5.22131 -1.24522 -3.45842
lowerback 6.11848 0.791486 2.53978
upperback 0.209618 1.24511 0.390295
thorax -3.1693 0.584508 -1.13154
lowerneck -10.1021 -1.48947 0.826809
upperneck 21.6071 -2.4875 1.13199
head 8.37572 -0.99723 -0.0126632
rclavicle -2.21893e-014 -7.15625e-015
rhumerus -51.7684 -11.3689 -82.1738
rradius 42.5714
rwrist 9.75272
rhand -8.60959 -32.964
rfingers 7.12502
rthumb 17.3222 -62.2121
lclavicle -2.21893e-014 -7.15625e-015
lhumerus -42.3188 8.54559 85.3952
lradius 37.1043
lwrist -9.69064
lhand -4.32566 -26.2368
lfingers 7.12502
lthumb 21.4412 2.5967
rfemur 15.991 0.360384 18.2272
rtibia 6.36111e-015
rfoot -17.7252 -9.64741
rtoes -7.27663
lfemur 0.858942 -5.58041 -11.6524
ltibia 25.3021
lfoot -22.7872 10.1792
ltoes -58.0258
45
root -0.778662 18.5242 6.16187 -5.20568 -1.2612 -3.46236
lowerback 6.08297 0.792212 2.54736
upperback 0.223611 1.24527 0.392005
thorax -3.13479 0.585065 -1.13324
lowerneck -10.1218 -1.48826 0.737241
upperneck 21.6177 -2.48763 1.21448
head 8.38523 -0.996028 0.0296774
rclavicle -1.85491e-014 -9.74045e-015
rhumerus -51.7519 -11.3865 -82.1692
rradius 42.5795
rwrist 9.78819
rhand -8.48922 -33.1989
rfingers 7.12502
rthumb 17.4381 -62.4368
lclavicle -1.85491e-014 -9.74045e-015
lhumerus -42.3017 8.57457 85.3805
lradius 37.0909
lwrist -9.71914
lhand -4.27527 -26.2174
lfingers 7.12502
lthumb 21.4896 2.61055
rfemur 15.9643 0.376038 18.2306
rtibia 0
rfoot -17.7276 -9.68069
rtoes -7.37982
lfemur 0.837144 -5.539 -11.6439
ltibia 25.3119
lfoot -22.7835 10.182
ltoes -58.0635
46
root -0.77663 18.5247 6.16113 -5.18481 -1.28518 -3.42756
lowerback 6.04905 0.796046 2.52016
upperback 0.226095 1.24705 0.382214
thorax -3.11348 0.586591 -1.1276
lowerneck -10.1022 -1.49621 0.678327
upperneck 21.6024 -2.49876 1.26767
head 8.37798 -1.00104 0.056428
rclavicle -1.07592e-014 -1.05356e-014
rhumerus -51.7765 -11.4065 -82.1579
rradius 42.6016
rwrist 9.8526
rhand -8.39103 -33.3201
rfingers 7.12502
rthumb 17.5326 -62.5495
lclavicle -1.07592e-014 -1.05356e-014
lhumerus -42.3151 8.60255 85.359
lradius 37.1021
lwrist -9.74283
lhand -4.21533 -26.1972
lfingers 7.12502
lthumb 21.5472 2.62419
rfemur 15.9326 0.404946 18.1873
rtibia -3.81667e-014
rfoot -17.6853 -9.67472
rtoes -7.30291
lfemur 0.808722 -5.51283 -11.6835
ltibia 25.328
lfoot -22.7942 10.1844
ltoes -58.0723
47
root -0.774276 18.5252 6.16039 -5.16004 -1.32025 -3.41419
lowerback 6.02301 0.811647 2.52352
upperback 0.222156 1.26701 0.372518
thorax -3.10191 0.596527 -1.14072
lowerneck -10.0762 -1.50925 0.738568
upperneck 21.5875 -2.51506 1.21081
head 8.36666 -1.00992 0.0259756
rclavicle -1.40764e-014 -4.77083e-015
rhumerus -51.826 -11.458 -82.1227
rradius 42.6305
rwrist 9.9011
rhand -8.34168 -33.2752
rfingers 7.12502
rthumb 17.5801 -62.5004
lclavicle -1.40764e-014 -4.77083e-015
lhumerus -42.3373 8.5131 85.387
lradius 37.141
lwrist -9.65085
lhand -4.15092 -26.1234
lfingers 7.12502
lthumb 21.609 2.69088
rfemur 15.894 0.442482 18.1679
rtibia 2.22639e-014
rfoot -17.6668 -9.65345
rtoes -7.114
lfemur 0.780749 -5.48685 -11.7024
ltibia 25.3381
lfoot -22.8189 10.1881
ltoes -58.0731
48
root -0.771872 18.5254 6.16007 -5.16052 -1.32772 -3.4287
lowerback 6.01896 0.823687 2.56512
upperback 0.235606 1.2854 0.368808
thorax -3.08407 0.605405 -1.16919
lowerneck -10.0916 -1.52102 0.780072
upperneck 21.5819 -2.52951 1.16653
head 8.36646 -1.01777 0.00265413
rclavicle 9.54166e-015 -1.98785e-015
rhumerus -51.8383 -11.5321 -82.0818
rradius 42.6537
rwrist 9.87098
rhand -8.30919 -33.2602
rfingers 7.12502
rthumb 17.6113 -62.4826
lclavicle 9.54166e-015 -1.98785e-015
lhumerus -42.3725 8.2888 85.4878
lradius 37.2472
lwrist -9.45134
lhand -4.09061 -25.9916
lfingers 7.12502
lthumb 21.6669 2.81599
rfemur 15.8902 0.449734 18.1785
rtibia -3.02153e-014
rfoot -17.6796 -9.67911
rtoes -7.16252
lfemur 0.782676 -5.45278 -11.6889
ltibia 25.3364
lfoot -22.8031 10.1753
ltoes -58.0995
49
root -0.770418 18.5256 6.15916 -5.18969 -1.29727 -3.40154
lowerback 6.04772 0.815885 2.54639
upperback 0.256575 1.274 0.361596
thorax -3.0792 0.600192 -1.16547
lowerneck -10.1331 -1.52311 0.73337
upperneck 21.5981 -2.53357 1.20753
head 8.38075 -1.0189 0.0233202
rclavicle -4.16578e-014 -7.95139e-016
rhumerus -51.8282 -11.5738 -82.045
rradius 42.6914
rwrist 10.008
rhand -8.03597 -33.3542
rfingers 7.12502
rthumb 17.8742 -62.5528
lclavicle -4.16578e-014 -7.95139e-016
lhumerus -42.4127 8.17918 85.5546
lradius 37.3318
lwrist -9.36082
lhand -4.09977 -25.9362
lfingers 7.12502
lthumb 21.6582 2.87248
rfemur 15.9281 0.425092 18.1381
rtibia -3.18055e-015
rfoot -17.6767 -9.68846
rtoes -7.19304
lfemur 0.811332 -5.47831 -11.7312
ltibia 25.329
lfoot -22.791 10.1954
ltoes -58.1412
50
root -0.769728 18.5255 6.15745 -5.21665 -1.26903 -3.36116
lowerback 6.08082 0.800822 2.49011
upperback 0.273474 1.25064 0.357543
thorax -3.08227 0.589438 -1.13656
lowerneck -10.1674 -1.50592 0.668768
upperneck 21.6167 -2.51466 1.28138
head 8.39521 -1.00735 0.0603629
rclavicle 1.57785e-015 9.93923e-016
rhumerus -51.8178 -11.6168 -81.9864
rradius 42.7318
rwrist 10.4584
rhand -7.43074 -33.5188
rfingers 7.12502
rthumb 18.4565 -62.6632
lclavicle 1.57785e-015 9.93923e-016
lhumerus -42.4263 8.21911 85.5551
lradius 37.3355
lwrist -9.38859
lhand -4.14744 -25.8998
lfingers 7.12502
lthumb 21.6124 2.91407
rfemur 15.96 0.403625 18.0858
rtibia 4.29375e-014
rfoot -17.674 -9.66483
rtoes -7.10581
lfemur 0.832677 -5.51412 -11.785
ltibia 25.3192
lfoot -22.8042 10.2061
ltoes -58.1288
